<?xml version="1.0" encoding="utf-8"?>
<!-- Generator: Adobe Illustrator 26.0.1, SVG Export Plug-In . SVG Version: 6.00 Build 0)  -->
<svg version="1.1" id="Layer_1" xmlns="http://www.w3.org/2000/svg" xmlns:xlink="http://www.w3.org/1999/xlink" x="0px" y="0px"
	 viewBox="0 0 950.27 301.48" style="enable-background:new 0 0 950.27 301.48;" xml:space="preserve">
<style type="text/css">
	.st0{fill:#FFFFFF;}
	.st1{fill:#FFFFFF;stroke:#FFFFFF;stroke-width:24;stroke-miterlimit:10;}
</style>
<path class="st0" d="M660.32,252.58c-31.16,0-62.32,0.05-93.48-0.07c-3.44-0.01-5.19,0.76-6.46,4.33
	c-10.1,28.41-33.67,44.81-63.65,44.63c-27.43-0.16-51.02-17.71-60.55-45.45c-1.33-3.88-3.73-3.5-6.53-3.45
	c-21.42,0.38-37.4-9.01-47-27.9c-3.35-6.59-4.89-14.53-5.46-21.99c-0.89-11.6-0.25-23.31-0.23-34.97
	c0.03-23.49,13.77-42.71,36.34-49.37c23.94-7.06,48-13.82,72.26-19.69c11.47-2.78,19.77-8.01,26.66-17.76
	c13.45-19.03,27.94-37.35,42.3-55.71c12.89-16.48,29.96-25.08,51-25.1C663.66,0,721.81-0.05,779.96,0.09
	c23.33,0.06,41.33,10.55,53.89,29.94c12.95,19.99,25.26,40.39,38.08,60.46c1.68,2.62,4.41,5.04,7.22,6.38
	c12.91,6.19,26.03,11.94,39.05,17.91c20.97,9.61,32.15,25.63,32.07,49.03c-0.04,12.83,0.03,25.66-0.02,38.49
	c-0.11,27.72-22.55,50.52-50.29,50.05c-9.49-0.16-14.66,1.34-18.92,11.44c-10.77,25.54-35.61,39.68-63.66,37.45
	c-27.92-2.22-46.93-17.34-56.77-43.5c-1.62-4.3-3.57-5.29-7.81-5.26C721.97,252.66,691.14,252.58,660.32,252.58z M887.2,229.03
	c4.36,0,8.01,0.03,11.67-0.01c15.59-0.16,27.6-11.84,27.87-27.45c0.22-12.83,0.22-25.66-0.01-38.49
	c-0.22-12.13-6.07-20.88-17.09-25.98c-15.41-7.14-30.94-14-46.25-21.35c-3.1-1.49-6.16-4.12-8-7
	c-14.01-21.88-27.67-43.98-41.53-65.95c-8.02-12.71-19.85-19.17-34.69-19.22c-57.48-0.18-114.97-0.11-172.45-0.04
	c-14.04,0.02-25.52,5.67-34.1,16.83c-14.51,18.89-29.72,37.32-43.08,56.99c-8.87,13.06-19.93,19.92-35.03,23.4
	c-24.47,5.65-48.57,12.91-72.78,19.65c-13.13,3.66-21.11,13.41-21.4,26.26c-0.26,11.66-0.36,23.33,0,34.99
	c0.49,16.12,13.06,27.67,29,27.42c3.09-0.05,4.22-0.95,4.76-4.12c5.36-31.18,31.81-53.59,63.35-53.93
	c32.12-0.34,59.03,21.44,65.12,53.08c0.77,4.02,2.2,5,6.08,5c60.98-0.12,121.96-0.08,182.95-0.1c1.76,0,3.53-0.18,5.17-0.27
	c6.88-40.21,38.49-57.41,63.53-57.77c14.5-0.21,27.74,3.49,39.51,11.82C875.56,193.96,884.58,209.41,887.2,229.03z M456.82,235.74
	c-0.22,22.95,18.39,41.86,41.32,41.99c22.6,0.12,41.76-18.64,41.9-41.04c0.15-22.9-18.43-41.97-41.21-42.3
	C476.05,194.06,457.04,212.77,456.82,235.74z M821.76,277.7c22.58,0.35,41.57-18.12,41.98-40.85c0.42-22.85-18.11-42.03-40.96-42.42
	c-22.7-0.39-41.79,18.16-42.37,41.15C779.85,258.03,798.8,277.34,821.76,277.7z"/>
<g>
	<line class="st1" x1="286.47" y1="265.45" x2="0" y2="265.45"/>
	<line class="st1" x1="286.47" y1="150.74" x2="0" y2="150.74"/>
	<line class="st1" x1="286.47" y1="36.03" x2="0" y2="36.03"/>
</g>
</svg>
